<svg width="14" height="15" viewBox="0 0 14 15" fill="none" xmlns="http://www.w3.org/2000/svg">
<path d="M2.18029 1.20009C1.74296 0.842539 1.10589 0.874427 0.706451 1.27386V1.27386C0.305797 1.67452 0.275102 2.31399 0.635539 2.75118L4.60866 7.57031L0.63554 12.3894C0.275102 12.8266 0.305797 13.4661 0.706451 13.8668V13.8668C1.10588 14.2662 1.74296 14.2981 2.18029 13.9405L7 10L11.8183 13.9394C12.2564 14.2976 12.8947 14.2657 13.2948 13.8655V13.8655C13.6951 13.4652 13.7269 12.8267 13.3683 12.3886L9.42468 7.57031L13.3683 2.75206C13.7269 2.31397 13.6951 1.67543 13.2948 1.27512V1.27512C12.8947 0.874972 12.2564 0.843027 11.8183 1.20122L7 5.14062L2.18029 1.20009Z" fill="black"/>
</svg>
