<svg width="38" height="38" viewBox="0 0 38 38" fill="none" xmlns="http://www.w3.org/2000/svg">
<path d="M19 0C8.512 0 0 8.512 0 19C0 29.488 8.512 38 19 38C29.488 38 38 29.488 38 19C38 8.512 29.488 0 19 0ZM9.633 30.932C10.45 29.222 15.428 27.55 19 27.55C22.572 27.55 27.569 29.222 28.367 30.932C25.783 32.984 22.534 34.2 19 34.2C15.466 34.2 12.217 32.984 9.633 30.932ZM31.084 28.177C28.367 24.871 21.774 23.75 19 23.75C16.226 23.75 9.633 24.871 6.916 28.177C4.978 25.631 3.8 22.458 3.8 19C3.8 10.621 10.621 3.8 19 3.8C27.379 3.8 34.2 10.621 34.2 19C34.2 22.458 33.022 25.631 31.084 28.177ZM19 7.6C15.314 7.6 12.35 10.564 12.35 14.25C12.35 17.936 15.314 20.9 19 20.9C22.686 20.9 25.65 17.936 25.65 14.25C25.65 10.564 22.686 7.6 19 7.6ZM19 17.1C17.423 17.1 16.15 15.827 16.15 14.25C16.15 12.673 17.423 11.4 19 11.4C20.577 11.4 21.85 12.673 21.85 14.25C21.85 15.827 20.577 17.1 19 17.1Z" fill="black"/>
</svg>
