<svg width="16" height="16" viewBox="0 0 16 16" fill="none" xmlns="http://www.w3.org/2000/svg"><path d="M8.23081 12.1905C9.24619 12.1905 10.077 11.5048 10.077 10.6667C10.077 9.82857 9.24619 9.14286 8.23081 9.14286C7.21542 9.14286 6.38465 9.82857 6.38465 10.6667C6.38465 11.5048 7.21542 12.1905 8.23081 12.1905ZM13.7693 5.33333H12.8462V3.80952C12.8462 1.70667 10.7785 0 8.23081 0C5.68311 0 3.61542 1.70667 3.61542 3.80952V5.33333H2.69235C1.67696 5.33333 0.846191 6.01905 0.846191 6.85714V14.4762C0.846191 15.3143 1.67696 16 2.69235 16H13.7693C14.7847 16 15.6154 15.3143 15.6154 14.4762V6.85714C15.6154 6.01905 14.7847 5.33333 13.7693 5.33333ZM5.36927 3.80952C5.36927 2.50667 6.65235 1.44762 8.23081 1.44762C9.80927 1.44762 11.0923 2.50667 11.0923 3.80952V5.33333H5.36927V3.80952ZM13.7693 14.4762H2.69235V6.85714H13.7693V14.4762Z" fill="#D0D0D0"/></svg>
